<?xml version="1.0" encoding="utf-8"?>
<!-- Generator: Adobe Illustrator 16.0.0, SVG Export Plug-In . SVG Version: 6.00 Build 0)  -->
<!DOCTYPE svg PUBLIC "-//W3C//DTD SVG 1.1//EN" "http://www.w3.org/Graphics/SVG/1.1/DTD/svg11.dtd">
<svg version="1.1" id="Layer_1" xmlns="http://www.w3.org/2000/svg" xmlns:xlink="http://www.w3.org/1999/xlink" x="0px" y="0px"
	 width="50px" height="49.681px" viewBox="0 0 50 49.681" enable-background="new 0 0 50 49.681" xml:space="preserve">
<g>
	
		<rect x="34.067" y="17.594" transform="matrix(-0.7072 0.707 -0.707 -0.7072 86.3175 7.659)" fill="#FFFFFF" width="15.012" height="8.22"/>
	
		<rect x="20.001" y="37.185" transform="matrix(0.7071 0.7071 -0.7071 0.7071 37.2575 -7.3553)" fill="#FFFFFF" width="15.012" height="8.222"/>
	<rect x="10.87" y="31.434" fill="#FFFFFF" width="8.222" height="15.012"/>
	
		<rect x="0.862" y="23.534" transform="matrix(-0.7071 0.7071 -0.7071 -0.7071 33.8336 41.2752)" fill="#FFFFFF" width="15.012" height="8.222"/>
	<rect x="3.722" y="11.207" fill="#FFFFFF" width="15.012" height="8.223"/>
	
		<rect x="14.649" y="4.281" transform="matrix(-0.7071 -0.7071 0.7071 -0.7071 31.8864 29.991)" fill="#FFFFFF" width="15.012" height="8.222"/>
	<rect x="30.5" y="3.196" fill="#FFFFFF" width="8.222" height="15.011"/>
	<path d="M33.333,24.152l8.466,0.002c0.013,0,0.574,0.001,1.149-0.286c0.288-0.144,0.581-0.362,0.801-0.693
		c0.223-0.329,0.363-0.769,0.363-1.333l0.003-8.266h-0.301l-0.003,8.266c0,0.515-0.129,0.887-0.314,1.166
		c-0.278,0.417-0.698,0.628-1.056,0.737c-0.182,0.054-0.344,0.081-0.463,0.094c-0.056,0.007-0.103,0.011-0.133,0.012
		c-0.019,0.001-0.03,0.002-0.036,0.002h-0.008h-0.003l-8.466-0.002V24.152L33.333,24.152z"/>
	<polygon points="38.062,28.898 39.203,30.038 49.93,19.315 48.695,18.079 48.479,18.292 49.5,19.315 39.203,29.609 38.276,28.683 
		38.062,28.898 	"/>
	<polygon points="48.695,18.079 43.898,13.281 33.17,24.002 38.062,28.898 38.276,28.683 33.599,24.002 43.898,13.708 
		48.479,18.292 48.695,18.079 	"/>
	<path d="M30.587,18.315l5.989-5.986c0.01-0.009,0.405-0.404,0.611-1.015c0.101-0.307,0.153-0.667,0.075-1.058
		c-0.077-0.389-0.283-0.801-0.685-1.2c-0.028-0.03-0.061-0.037-0.075-0.041c-0.014-0.003-0.021-0.003-0.026-0.003l-0.004,0l0,0
		c0.004,0.001,0.015-0.002,0.045,0.008c0.014,0.004,0.032,0.011,0.05,0.026l-0.097,0.118l0.138-0.063
		c-0.008-0.022-0.024-0.042-0.041-0.055l-0.097,0.118l0.138-0.063l-0.138,0.063l0.146,0.034c0.006-0.021,0.01-0.058-0.008-0.097
		l-0.138,0.063l0.146,0.034c-0.006,0.03-0.014,0.041-0.021,0.049l-0.125-0.083l0.115,0.097l0.01-0.015l-0.125-0.083l0.115,0.097
		l0.089-0.106L30.732,3.21L30.52,3.425l5.843,5.847l0.108-0.107l-0.117-0.098l-0.008,0.012l-0.016,0.025
		c-0.005,0.011-0.013,0.029-0.013,0.06c0,0.027,0.01,0.066,0.032,0.094c0.021,0.025,0.045,0.04,0.061,0.046
		c0.03,0.012,0.045,0.01,0.051,0.012h0.008c-0.002,0-0.01,0-0.024-0.002l0.026-0.149l-0.108,0.107
		c0.036,0.033,0.066,0.038,0.082,0.042l0.026-0.149l-0.108,0.107c0.365,0.365,0.537,0.718,0.605,1.045
		c0.097,0.49-0.051,0.939-0.229,1.27c-0.089,0.164-0.184,0.299-0.258,0.391c-0.037,0.046-0.067,0.081-0.087,0.104l-0.026,0.026
		l-0.006,0.006v0.001l-5.99,5.986L30.587,18.315L30.587,18.315z"/>
	<polygon points="37.289,18.325 38.902,18.326 38.906,3.158 37.158,3.157 37.158,3.461 38.601,3.461 38.597,18.023 37.289,18.022 
		37.289,18.325 	"/>
	<polygon points="37.158,3.157 30.373,3.155 30.369,18.324 37.289,18.325 37.289,18.022 30.671,18.021 30.675,3.459 37.158,3.461 
		37.158,3.157 	"/>
	<path d="M24.616,16.6l0.002-8.468c0-0.013,0.002-0.572-0.285-1.148c-0.145-0.289-0.363-0.582-0.693-0.803
		c-0.329-0.221-0.768-0.363-1.334-0.363l-8.266-0.002v0.304l8.266,0.002c0.516,0,0.888,0.128,1.166,0.313
		c0.416,0.276,0.63,0.698,0.734,1.057c0.057,0.179,0.085,0.342,0.097,0.459c0.007,0.058,0.011,0.105,0.011,0.137
		c0.002,0.015,0.002,0.027,0.002,0.035V8.13v0.002l-0.002,8.467L24.616,16.6L24.616,16.6z"/>
	<polygon points="29.362,11.869 30.502,10.729 19.78,0 18.544,1.236 18.757,1.45 19.779,0.429 30.074,10.729 29.15,11.654 
		29.362,11.869 	"/>
	<polygon points="18.544,1.236 13.746,6.032 24.468,16.76 29.362,11.869 29.15,11.654 24.468,16.332 14.174,6.032 18.757,1.45 
		18.544,1.236 	"/>
	<path d="M18.78,19.343l-5.986-5.99c-0.009-0.007-0.403-0.405-1.014-0.609c-0.306-0.103-0.667-0.155-1.058-0.077
		c-0.388,0.078-0.8,0.287-1.199,0.686c-0.03,0.03-0.038,0.059-0.041,0.075c-0.004,0.014-0.004,0.022-0.004,0.026l-0.001,0.004v0
		c0.001-0.003-0.001-0.013,0.008-0.044c0.004-0.013,0.012-0.03,0.027-0.048c0.012-0.016,0.033-0.032,0.055-0.042
		c0.039-0.018,0.077-0.014,0.096-0.009c0.032,0.007,0.041,0.016,0.049,0.021L9.63,13.458l0.097-0.115l-0.015-0.011L9.63,13.458
		l0.097-0.115l-0.106-0.09l-5.945,5.942L3.89,19.41l5.847-5.842L9.629,13.46l-0.099,0.115l0.012,0.01l0.026,0.015
		c0.01,0.004,0.029,0.011,0.06,0.012c0.026,0.001,0.065-0.009,0.094-0.033c0.025-0.019,0.038-0.042,0.045-0.06
		c0.012-0.029,0.012-0.043,0.013-0.05v-0.007c0,0.001,0,0.008-0.002,0.023L9.629,13.46l0.107,0.107
		c0.033-0.037,0.039-0.066,0.042-0.082L9.629,13.46l0.107,0.107c0.365-0.365,0.718-0.538,1.046-0.604
		c0.489-0.098,0.938,0.049,1.27,0.228c0.164,0.088,0.299,0.185,0.39,0.257c0.046,0.037,0.081,0.067,0.104,0.088l0.026,0.024
		l0.005,0.006l0.001,0.001l5.986,5.989L18.78,19.343L18.78,19.343z"/>
	<polygon points="18.791,12.641 18.791,11.029 3.623,11.024 3.623,12.773 3.926,12.773 3.926,11.328 18.488,11.333 18.488,12.641 
		18.791,12.641 	"/>
	<polygon points="3.623,12.773 3.621,19.557 18.789,19.561 18.791,12.641 18.488,12.641 18.485,19.257 3.924,19.253 3.926,12.773 
		3.623,12.773 	"/>
	<path d="M16.599,25.14l-8.467-0.003c-0.013,0.001-0.572-0.001-1.149,0.286c-0.289,0.144-0.582,0.364-0.802,0.693
		c-0.221,0.331-0.364,0.769-0.364,1.334l-0.002,8.266h0.303l0.002-8.266c0-0.516,0.128-0.888,0.313-1.166
		c0.276-0.417,0.698-0.628,1.057-0.737c0.179-0.054,0.342-0.08,0.459-0.094c0.059-0.007,0.105-0.009,0.136-0.012
		c0.015-0.001,0.028-0.001,0.036-0.001l0.009,0h0.001l8.467,0.003V25.14L16.599,25.14z"/>
	<polygon points="11.869,20.394 10.729,19.253 0,29.976 1.236,31.212 1.451,30.998 0.429,29.976 10.729,19.684 11.653,20.608 
		11.869,20.394 	"/>
	<polygon points="1.236,31.212 6.031,36.011 16.76,25.288 11.869,20.394 11.653,20.608 16.332,25.288 6.031,35.582 1.451,30.998 
		1.236,31.212 	"/>
	<path d="M19.033,31.366l-5.989,5.985c-0.007,0.009-0.404,0.403-0.61,1.015c-0.103,0.305-0.154,0.667-0.077,1.056
		c0.078,0.39,0.287,0.801,0.686,1.201c0.03,0.029,0.06,0.036,0.075,0.04c0.014,0.003,0.022,0.003,0.026,0.004h0.004h0
		c-0.003,0-0.012,0.002-0.044-0.008c-0.013-0.004-0.03-0.011-0.048-0.026l0.096-0.117l-0.137,0.063
		c0.009,0.022,0.025,0.042,0.041,0.055l0.096-0.117l-0.137,0.063l0.137-0.063l-0.148-0.034c-0.004,0.021-0.008,0.057,0.011,0.097
		l0.137-0.063l-0.148-0.034c0.008-0.03,0.016-0.041,0.022-0.049l0.125,0.083l-0.115-0.097l-0.011,0.014l0.125,0.083l-0.115-0.097
		l-0.091,0.105l5.943,5.946l0.214-0.215l-5.843-5.847l-0.107,0.107l0.116,0.098l0.009-0.012l0.015-0.025
		c0.004-0.011,0.012-0.028,0.013-0.06c0.001-0.027-0.01-0.066-0.033-0.095c-0.019-0.024-0.043-0.039-0.059-0.046
		c-0.03-0.011-0.042-0.01-0.05-0.011h-0.007c0.001,0,0.008,0,0.024,0.001l-0.026,0.149l0.107-0.107
		c-0.034-0.034-0.066-0.038-0.081-0.042l-0.026,0.149l0.107-0.107c-0.364-0.365-0.538-0.717-0.604-1.045
		c-0.098-0.491,0.049-0.938,0.227-1.269c0.089-0.165,0.185-0.299,0.258-0.39c0.037-0.047,0.067-0.082,0.088-0.105l0.024-0.026
		l0.006-0.006l0.001-0.001l5.99-5.986L19.033,31.366L19.033,31.366z"/>
	<polygon points="12.332,31.355 10.72,31.355 10.715,46.522 12.464,46.523 12.464,46.22 11.019,46.219 11.024,31.658 12.332,31.658 
		12.332,31.355 	"/>
	<polygon points="12.464,46.523 19.248,46.525 19.252,31.357 12.332,31.355 12.332,31.658 18.949,31.66 18.944,46.222 12.464,46.22 
		12.464,46.523 	"/>
	<path d="M25.005,33.081l-0.002,8.468c0.002,0.013,0,0.572,0.284,1.15c0.146,0.288,0.365,0.58,0.694,0.801
		c0.331,0.221,0.768,0.364,1.335,0.363l8.265,0.003v-0.304l-8.265-0.003c-0.515,0-0.889-0.127-1.165-0.313
		c-0.416-0.276-0.63-0.697-0.737-1.057c-0.054-0.18-0.082-0.342-0.095-0.459c-0.008-0.057-0.01-0.104-0.012-0.137
		c0-0.016,0-0.027-0.002-0.034v-0.01v-0.001l0.004-8.467L25.005,33.081L25.005,33.081z"/>
	<polygon points="20.259,37.813 19.119,38.953 29.84,49.681 31.08,48.444 30.864,48.23 29.842,49.252 19.548,38.953 20.473,38.027 
		20.259,37.813 	"/>
	<polygon points="31.08,48.444 35.875,43.649 25.155,32.921 20.259,37.813 20.473,38.027 25.155,33.35 35.448,43.649 30.864,48.23 
		31.08,48.444 	"/>
	<polyline fill="#F3BF7B" points="31.14,38.434 31.12,30.159 45.893,30.12 45.915,38.395 31.14,38.434 	"/>
	<polygon points="30.832,37.04 30.832,38.652 46,38.657 46.001,36.908 45.695,36.908 45.695,38.354 31.134,38.349 31.134,37.04 
		30.832,37.04 	"/>
	<polygon points="46.001,36.908 46.001,30.124 30.833,30.12 30.832,37.04 31.134,37.04 31.136,30.424 45.697,30.428 45.695,36.908 
		46.001,36.908 	"/>
	<path fill="#F19D20" d="M31.253,30.434l5.725,5.803c0,0,1.486,1.508,2.978,0.005l5.762-5.799L31.253,30.434L31.253,30.434z"/>
	<path d="M30.841,30.339l5.987,5.989c0.008,0.009,0.402,0.405,1.014,0.609c0.307,0.103,0.668,0.155,1.058,0.078
		c0.388-0.078,0.8-0.287,1.201-0.686c0.03-0.033,0.032-0.057,0.034-0.061v-0.001l-0.144-0.045l0.136,0.07
		c0.008-0.017,0.008-0.024,0.008-0.024l-0.144-0.045l0.136,0.07l-0.136-0.07l0.091,0.122c0.024-0.019,0.039-0.039,0.045-0.052
		l-0.136-0.07l0.091,0.122l-0.091-0.122l0.026,0.149c0.022-0.004,0.047-0.015,0.064-0.028l-0.091-0.122l0.026,0.149l-0.026-0.149
		l-0.044,0.144c0.014,0.005,0.038,0.011,0.07,0.005l-0.026-0.149l-0.044,0.144l0.044-0.143l-0.078,0.13
		c0.006,0.003,0.016,0.008,0.034,0.013l0.044-0.143l-0.078,0.13l0.103,0.061l5.931-5.927l-0.216-0.214l-5.846,5.843l0.106,0.107
		l0.077-0.13c-0.01-0.005-0.026-0.019-0.075-0.021c-0.018,0-0.038,0.003-0.063,0.012c-0.036,0.017-0.063,0.047-0.07,0.063
		l-0.01,0.026l-0.004,0.005l0,0l0.145,0.045l-0.106-0.107c-0.034,0.039-0.034,0.062-0.038,0.062l0.145,0.045l-0.106-0.107
		c-0.363,0.364-0.719,0.537-1.046,0.604c-0.488,0.098-0.938-0.049-1.268-0.228c-0.164-0.089-0.301-0.185-0.392-0.257
		c-0.045-0.038-0.083-0.068-0.105-0.089l-0.023-0.024l-0.009-0.006v-0.001l-5.987-5.989L30.841,30.339L30.841,30.339z"/>
</g>
</svg>
